<svg id="图层_1" data-name="图层 1" xmlns="http://www.w3.org/2000/svg" xmlns:xlink="http://www.w3.org/1999/xlink" viewBox="0 0 55.94 20"><defs><style>.cls-1{fill:none;}.cls-2{fill:#f6b737;}.cls-3{fill:#f59a3d;}.cls-4{clip-path:url(#clip-path);}.cls-5{clip-path:url(#clip-path-2);}.cls-6{fill:#2e2e30;}.cls-7{fill:#ff1616;}</style><clipPath id="clip-path" transform="translate(-2.96 -11.84)"><rect class="cls-1" x="10.38" y="26.6" width="5.64" height="5.24"/></clipPath><clipPath id="clip-path-2" transform="translate(-2.96 -11.84)"><rect class="cls-1" x="2.97" y="11.84" width="20" height="19.51"/></clipPath></defs><path class="cls-2" d="M18.85,20.85a7.26,7.26,0,0,1-2,3.28,8.87,8.87,0,0,0-1.32,1.56,3.46,3.46,0,0,0-.39,1c-.08.34-.07.67-.12,1-.1.57-.7.67-1.24.66a12.7,12.7,0,0,1-2.3-.21c-.06,0-.15,0-.16-.06-.06-.33-.11-.65-.18-1a4.05,4.05,0,0,0-.86-1.84c-.41-.48-.94-.88-1.39-1.34a5.06,5.06,0,0,1-1.49-3.17,4.73,4.73,0,0,1,.76-3.09A5,5,0,0,1,11.1,15.7a11,11,0,0,1,4.2-.29,4.24,4.24,0,0,1,3.25,1.83,5,5,0,0,1,.3,3.61" transform="translate(-2.96 -11.84)"/><path class="cls-3" d="M15,24.72c-.48-.15-.56-.78-1-.32a20,20,0,0,0-.44,2.1C14,27.79,15.76,25,15,24.72Zm-.58-8c.28-.14,1.21,0,1.43-.32.36-.48-.44-.66-.84-.7C13.87,15.54,14,16.9,14.45,16.68Zm3.79,2a7.14,7.14,0,0,1-1.79,4.8c-.34.35-1,1-1.5.4-.25-.32.09-1.86.08-2.23,0-1-.28-1.89-.4-2.85-.11-.8,0-1.06.84-1.38,1.55-.6,2.77-.49,2.77,1.26" transform="translate(-2.96 -11.84)"/><g class="cls-4"><path class="cls-3" d="M15.62,29.41a.68.68,0,0,1-.53.66.65.65,0,0,1-.34.77.79.79,0,0,1-.33.72,2.1,2.1,0,0,1-1.1.28c-.53,0-1.69-.23-1.64-.86a1.41,1.41,0,0,1-.5-.22.4.4,0,0,1-.13-.46.6.6,0,0,1,.26-.24.93.93,0,0,1-.63-.69.64.64,0,0,1,.41-.68,1.14,1.14,0,0,1-.41-.91.6.6,0,0,1,.42-.5.07.07,0,0,1,.07,0h.19l.06,0a14.48,14.48,0,0,0,1.47.08c.56,0,1.11-.08,1.66-.13.37,0,.79.05.9.41a1,1,0,0,1-.21.92,1,1,0,0,1,.38.86" transform="translate(-2.96 -11.84)"/></g><g class="cls-5"><path class="cls-6" d="M14.58,30.92a2.34,2.34,0,0,1-1.26.25A6.3,6.3,0,0,1,11.88,31a.06.06,0,0,0-.05.11,4.18,4.18,0,0,0,1.58.22,1.82,1.82,0,0,0,1.26-.3A.07.07,0,0,0,14.58,30.92Zm.29-.92c-.26,0-.52.12-.78.16a6.25,6.25,0,0,1-.86.08,6.52,6.52,0,0,1-1.65-.17.07.07,0,1,0,0,.14,6.33,6.33,0,0,0,1.74.2,4.62,4.62,0,0,0,1.66-.26C15,30.1,15,30,14.87,30Zm-1.63-1.08a5.11,5.11,0,0,0,1.7-.25c.07,0,0-.14,0-.13-.26,0-.52.09-.78.13a7.32,7.32,0,0,1-.93.09,14,14,0,0,1-1.72-.08.07.07,0,0,0,0,.13A6.4,6.4,0,0,0,13.24,28.92ZM16,20.65s-.08-.08-.18-.08h0a1,1,0,0,0-.6.26,1,1,0,0,0,.33.06.88.88,0,0,0,.33-.07C16,20.76,16,20.69,16,20.65Zm-1.33.23h0a.93.93,0,0,1-.18-.16,1.88,1.88,0,0,1-.24-.36,1,1,0,0,1-.55.16,1,1,0,0,1-.79-.36,1.07,1.07,0,0,1-.77.4.77.77,0,0,1-.3-.06,3,3,0,0,1-.14.45.7.7,0,0,0-.06.09.37.37,0,0,0-.07.14.8.8,0,0,0,.14.18.69.69,0,0,1,.12.14,2,2,0,0,1,.18.41,5.78,5.78,0,0,1,.26,1.76c0,.6,0,1.21,0,1.8,0,.14,0,.27,0,.41l0,1.06v.27c.31,0,.63,0,.94,0s.77,0,1.15-.08a3.25,3.25,0,0,1,0-.57v-.14a17.57,17.57,0,0,1,0-2.3c0-.16,0-.33,0-.49A15.07,15.07,0,0,1,14.41,22a3.14,3.14,0,0,1,.09-.51.87.87,0,0,1,.08-.19C14.62,21.18,14.73,20.92,14.69,20.88ZM11.62,20s0,0,0-.06c0-.24.1-.62,0-.79a.17.17,0,0,0-.13-.09.15.15,0,0,0-.11.06c-.07.07,0,.24,0,.34v0A1.68,1.68,0,0,0,11.62,20ZM13,19.6a1.09,1.09,0,0,0,.22-.46.36.36,0,0,0-.07-.22l0,0s0,0-.08.06A.75.75,0,0,0,13,19.6Zm1.45.25c.22-.26.32-.47.29-.62a.21.21,0,0,0-.19-.17c-.07,0-.1.05-.13.1A1.18,1.18,0,0,0,14.41,19.85ZM11.09,21.2l-.19,0a.43.43,0,0,0-.28.09.45.45,0,0,0,.16,0A.63.63,0,0,0,11.09,21.2Zm5.21-.59c0,.2-.14.45-.5.52a1,1,0,0,1-.25,0h-.18l-.17,0L15,21.05c-.08,0-.19.18-.27.84v0a24.63,24.63,0,0,0-.16,4.62.64.64,0,0,1,0,.09c0,.16,0,.33,0,.47l.19,0c.11,0,.13.15,0,.16a10.64,10.64,0,0,1-1.7.14,10.76,10.76,0,0,1-1.7-.08.07.07,0,0,1,0-.14h.41c0-.25,0-.6,0-1.07,0-.13,0-.23,0-.28,0-.58,0-1.26,0-1.95a6.18,6.18,0,0,0-.23-1.78.21.21,0,0,0,0-.06c-.05-.17-.17-.58-.33-.64h0a1.32,1.32,0,0,0-.23.07,1.27,1.27,0,0,1-.4.11h0c-.17,0-.4-.08-.46-.22s0-.15.07-.26a.72.72,0,0,1,.54-.22H11a.59.59,0,0,1,.17,0l.15,0h0c.08,0,.11-.1.16-.19l0-.06a.75.75,0,0,0,.09-.29.23.23,0,0,0-.08-.2.6.6,0,0,1-.08-.08,1.39,1.39,0,0,1-.3-1.11.43.43,0,0,1,.31-.26l.14,0a.37.37,0,0,1,.25.1,1.12,1.12,0,0,1,.17.77s0,.11,0,.19a1.34,1.34,0,0,0,0,.4.27.27,0,0,0,.21.07.91.91,0,0,0,.37-.09.81.81,0,0,0,.25-.23.26.26,0,0,0,0-.24l0-.12a.94.94,0,0,1,.07-.74.52.52,0,0,1,.4-.25.36.36,0,0,1,.19.05c.25.17.17.51.11.65a1.14,1.14,0,0,1-.16.26,1.19,1.19,0,0,0-.19.33c0,.12.3.28.45.32h.17c.19,0,.41,0,.44-.18a1,1,0,0,0-.05-.32,1.14,1.14,0,0,1-.06-.3.84.84,0,0,1,.14-.44.4.4,0,0,1,.71,0,.64.64,0,0,1,0,.76l-.22.3-.06.06c-.07.08-.08.08,0,.21a1.06,1.06,0,0,0,.22.3s.1.09.12.09l.06,0,.07,0,.16-.1a1.31,1.31,0,0,1,.51-.21h.13C16.14,20.29,16.28,20.46,16.3,20.61Zm4.12,5.14c-.31-.23-.65-.44-1-.68s-.57-.49-.89-.7c-.1-.07-.25.06-.17.15a4.33,4.33,0,0,0,.87.78,5.77,5.77,0,0,0,1,.64C20.39,26,20.54,25.84,20.42,25.75Zm2.48-2.7a10,10,0,0,0-1.3-.67,4.77,4.77,0,0,0-1.32-.54c-.12,0-.24.12-.13.21a6.41,6.41,0,0,0,1.26.62c.45.2.88.43,1.34.61C22.92,23.35,23.05,23.15,22.9,23.05Zm-2.35-5.34c.38-.06.76-.18,1.14-.28s.77-.18,1.13-.31a.13.13,0,1,0-.07-.24,12.14,12.14,0,0,0-1.19.29,11,11,0,0,0-1.12.32C20.3,17.54,20.41,17.73,20.55,17.71ZM19.24,13.2c.1-.13-.12-.24-.22-.12-.28.33-.56.66-.84,1s-.57.57-.8.88c-.08.11.1.23.21.14a8.48,8.48,0,0,0,.87-.93C18.73,13.83,19,13.52,19.24,13.2Zm-6.08,1.14a6.79,6.79,0,0,0,0-1.19V12c0-.15-.24-.14-.26,0,0,.41,0,.83,0,1.24a4.33,4.33,0,0,0,.07,1.19C13,14.52,13.14,14.47,13.16,14.34Zm-6,.52a9.15,9.15,0,0,0-.82-.95c-.1-.1-.28,0-.21.14a11.55,11.55,0,0,0,.83,1,8.22,8.22,0,0,0,.82.95c.11.09.28,0,.21-.14A8.82,8.82,0,0,0,7.2,14.86Zm-1.59,4.3a4.55,4.55,0,0,0,.9.07.13.13,0,0,0,0-.26,5.14,5.14,0,0,0-.8-.12l-1-.11c-.56-.07-1.12-.17-1.69-.22a.13.13,0,0,0,0,.26,17.3,17.3,0,0,0,1.73.28ZM7,23.51c-.37.23-.78.4-1.16.61a7.31,7.31,0,0,1-1.1.59.12.12,0,0,1-.13-.19,2.82,2.82,0,0,1,.54-.36l.56-.31a7.15,7.15,0,0,1,1.19-.55.12.12,0,0,1,.1.21" transform="translate(-2.96 -11.84)"/></g><path class="cls-3" d="M9.13,22.13a2.09,2.09,0,0,0-.2-.5s-.09,0-.11,0a1.41,1.41,0,0,0,.26,1.11c.16.25.41.67.77.71a.08.08,0,0,0,.08-.08c0-.29-.36-.53-.52-.76A2.15,2.15,0,0,1,9.13,22.13Zm1.15-4.53a2.43,2.43,0,0,0-1,1.16,10.16,10.16,0,0,0-.38,1.72c0,.13-.29.14-.32,0a3.41,3.41,0,0,1,.33-1.93,2.7,2.7,0,0,1,1.22-1.21c.19-.09.36.16.17.26" transform="translate(-2.96 -11.84)"/><path class="cls-7" d="M25.14,17.63c0,.39,0,1,0,1.7s0,1.2,0,1.34c.92-.07,1.43-.11,1.54-.14.34,0,.56.07.66.31a.54.54,0,0,1,0,.39.64.64,0,0,1-.24.31,1.07,1.07,0,0,1-.66.17l-1.33,0a15.09,15.09,0,0,0,.06,2l.82,0,.51,0h.54a.88.88,0,0,1,.33.06.65.65,0,0,1,.34.22.5.5,0,0,1,.09.34.52.52,0,0,1-.46.53.33.33,0,0,1-.18,0l-2.11-.11a1.37,1.37,0,0,1-.81-.31,1.11,1.11,0,0,1-.33-.73,6.32,6.32,0,0,1-.09-1.06V19.3c0-.12,0-.43,0-.92s0-.85,0-1.12a.62.62,0,0,1,.18-.56,1.06,1.06,0,0,1,.66-.19,4.26,4.26,0,0,1,.51,0,3.66,3.66,0,0,0,.49,0l.72,0a6.69,6.69,0,0,1,.75,0,1.78,1.78,0,0,1,.46.05A.59.59,0,0,1,28,17a.6.6,0,0,1,.09.33.49.49,0,0,1-.15.34.76.76,0,0,1-.31.16,1.29,1.29,0,0,1-.48,0C27,17.79,26.33,17.74,25.14,17.63Z" transform="translate(-2.96 -11.84)"/><path class="cls-7" d="M28.63,18.1h-.06V16.84a.63.63,0,0,1,.06-.33.48.48,0,0,1,.51-.34.59.59,0,0,1,.51.34q0,.15.06.33c0,.51.1,1.25.19,2.21s.12,1.65.15,2.1c.07.94.13,1.58.18,1.93a1,1,0,0,0,.09.42.51.51,0,0,0,.24.22,2.23,2.23,0,0,0,.45.09,4.2,4.2,0,0,0,1.33,0,1.45,1.45,0,0,1,.3,0,.68.68,0,0,1,.42.14.55.55,0,0,1,.21.33.6.6,0,0,1-.09.42.57.57,0,0,1-.36.23,1.73,1.73,0,0,1-.63.11,6,6,0,0,1-1.72-.08A1.77,1.77,0,0,1,29,23.5c0-.26-.07-.51-.09-.76-.08-1.13-.17-2.46-.27-4Z" transform="translate(-2.96 -11.84)"/><path class="cls-7" d="M34.88,17.63c0,.39,0,1,0,1.7s0,1.2,0,1.34c.92-.07,1.43-.11,1.54-.14.34,0,.56.07.66.31a.54.54,0,0,1,0,.39.64.64,0,0,1-.24.31,1.07,1.07,0,0,1-.66.17l-1.33,0a15.09,15.09,0,0,0,.06,2l.82,0,.51,0h.54a.88.88,0,0,1,.33.06.59.59,0,0,1,.33.22.41.41,0,0,1,.09.34.52.52,0,0,1-.45.53A.33.33,0,0,1,37,25l-2.11-.11a1.37,1.37,0,0,1-.81-.31,1.17,1.17,0,0,1-.34-.73,6.32,6.32,0,0,1-.09-1.06V19.3c0-.12,0-.43,0-.92a10.25,10.25,0,0,0,0-1.12.65.65,0,0,1,.19-.56,1,1,0,0,1,.66-.19,4.26,4.26,0,0,1,.51,0,3.62,3.62,0,0,0,.48,0l.73,0a6.69,6.69,0,0,1,.75,0,1.64,1.64,0,0,1,.45.05.62.62,0,0,1,.31.26.6.6,0,0,1,.09.33.46.46,0,0,1-.16.34.72.72,0,0,1-.3.16,1.29,1.29,0,0,1-.48,0C36.74,17.79,36.06,17.74,34.88,17.63Z" transform="translate(-2.96 -11.84)"/><path class="cls-7" d="M40.93,18.07c.06.1.48.66,1.27,1.68l.21-.28A17.35,17.35,0,0,0,43.7,17.1a2.35,2.35,0,0,1,.25-.51.65.65,0,0,1,.72-.39.68.68,0,0,1,.57.56c.06.5.1.94.12,1.29q0,1.62.06,6.15a1.55,1.55,0,0,1,0,.31.82.82,0,0,1-.27.36.61.61,0,0,1-.36.11.66.66,0,0,1-.42-.14.6.6,0,0,1-.21-.36V19.81s0-.23,0-.62l-.18.23c-.43.65-.65,1-.67,1a2.18,2.18,0,0,1-.48.48,1,1,0,0,1-.69.22.87.87,0,0,1-.64-.36c-.14-.21-.66-.91-1.57-2.1a2.8,2.8,0,0,0-.21-.25V19c0,.11,0,.33,0,.67s0,.61.06.81q0,.68.12,3.72v.31a.63.63,0,0,1-.21.39.7.7,0,0,1-.39.17.68.68,0,0,1-.42-.14.51.51,0,0,1-.24-.34.77.77,0,0,1,0-.25c-.06-2.25-.11-3.69-.12-4.31q0-.55-.09-2.79a1.35,1.35,0,0,1,0-.37.64.64,0,0,1,.51-.58.65.65,0,0,1,.69.22C40.15,17.14,40.58,17.67,40.93,18.07Z" transform="translate(-2.96 -11.84)"/><path class="cls-7" d="M47.62,17.38a3,3,0,0,1,2.2-.79,3.37,3.37,0,0,1,1.66.51,2.65,2.65,0,0,1,1.11,1.28A4.79,4.79,0,0,1,52.86,21a6.09,6.09,0,0,1-.6,2.05,3.88,3.88,0,0,1-1,1.28A3.13,3.13,0,0,1,49.1,25a3,3,0,0,1-2.27-1.23,3.6,3.6,0,0,1-.66-1.74,6.75,6.75,0,0,1,.6-3.58A3.11,3.11,0,0,1,47.62,17.38Zm3.5,5.11a6.21,6.21,0,0,0,.54-2.35,4.21,4.21,0,0,0-.21-1.2,1.23,1.23,0,0,0-.79-.87L50.54,18,50.48,18a1.92,1.92,0,0,0-1.08-.22,1.42,1.42,0,0,0-.91.47A3.58,3.58,0,0,0,48,19a5.26,5.26,0,0,0-.54,2.66A2.5,2.5,0,0,0,47.8,23a2.14,2.14,0,0,0,.51.53,1.63,1.63,0,0,0,.64.3,1.47,1.47,0,0,0,.75,0,2.15,2.15,0,0,0,.78-.48A3.1,3.1,0,0,0,51.12,22.49Z" transform="translate(-2.96 -11.84)"/><path class="cls-7" d="M57.74,24.51a4.19,4.19,0,0,1-1.87.47,2.82,2.82,0,0,1-1.24-.22,2.12,2.12,0,0,1-1.33-1.82,1.69,1.69,0,0,1,.31-1,.66.66,0,0,1,.36-.25.76.76,0,0,1,.45,0,.69.69,0,0,1,.3.31.6.6,0,0,1,0,.42.42.42,0,0,1-.06.14.8.8,0,0,0,.54,1.11,2.09,2.09,0,0,0,.76.12,2.42,2.42,0,0,0,1.14-.37.81.81,0,0,0,.43-1.09,1.8,1.8,0,0,0-.85-1c-.08,0-.44-.21-1.05-.53a1.11,1.11,0,0,1-.24-.08l-.25-.11a1.05,1.05,0,0,1-.21-.12,2.16,2.16,0,0,1-.93-1A2,2,0,0,1,54,18.27a2.49,2.49,0,0,1,.87-1.4,2.92,2.92,0,0,1,1.54-.61,2.05,2.05,0,0,1,1.75.56.73.73,0,0,1,.24.56.35.35,0,0,1,0,.25.39.39,0,0,1-.12.19.39.39,0,0,1-.21.11.54.54,0,0,1-.69-.25.84.84,0,0,0-.37-.25.63.63,0,0,0-.45-.05,2,2,0,0,0-.84.44,1.36,1.36,0,0,0-.46.79.79.79,0,0,0,.43.92l.33.17.3.11c.68.33,1.07.54,1.18.61a3,3,0,0,1,1.26,1.35,2.12,2.12,0,0,1,.18.72,1.79,1.79,0,0,1,0,.73,1.87,1.87,0,0,1-.39.73A2.68,2.68,0,0,1,57.74,24.51Z" transform="translate(-2.96 -11.84)"/><path class="cls-3" d="M26.54,27a1.18,1.18,0,0,1,.39.05.28.28,0,0,1,.18.14,1,1,0,0,1,.06.36v2.38A1.57,1.57,0,0,1,26.66,31a1.72,1.72,0,0,1-1.27.47,1.65,1.65,0,0,1-.75-.16,2.68,2.68,0,0,1-.42-.28L24.16,31c-.17-.15-.24-.27-.24-.36a.55.55,0,0,1,.24-.39.68.68,0,0,1,.39-.23.61.61,0,0,1,.39.2.76.76,0,0,0,.49.19.55.55,0,0,0,.6-.58V27.57c0-.26,0-.42.12-.47A.51.51,0,0,1,26.54,27Z" transform="translate(-2.96 -11.84)"/><path class="cls-3" d="M31.52,27.15a.41.41,0,0,1,.21-.14A.91.91,0,0,1,32,27l.3,0a.51.51,0,0,1,.18.09.34.34,0,0,1,.09.14,1.53,1.53,0,0,1,0,.3v1.85a2.29,2.29,0,0,1-.54,1.48,1.84,1.84,0,0,1-.67.51,2.4,2.4,0,0,1-1.87,0,1.92,1.92,0,0,1-.66-.54,2.18,2.18,0,0,1-.51-1.45V27.29a.25.25,0,0,1,.06-.17.33.33,0,0,1,.18-.11A.91.91,0,0,1,29,27a1,1,0,0,1,.33.05c.1,0,.16.06.18.11a.75.75,0,0,1,.09.39v1.85a1.46,1.46,0,0,0,.18.7,1,1,0,0,0,.31.28.92.92,0,0,0,.48.11.77.77,0,0,0,.69-.33,1.34,1.34,0,0,0,.24-.79V27.46A.58.58,0,0,1,31.52,27.15Z" transform="translate(-2.96 -11.84)"/><path class="cls-3" d="M37,27.15a.41.41,0,0,1,.21-.14,2.16,2.16,0,0,1,.3,0,2.32,2.32,0,0,1,.31,0,.51.51,0,0,1,.18.09.26.26,0,0,1,.09.11,2,2,0,0,1,0,.3v3.42a1.17,1.17,0,0,1,0,.22,1.21,1.21,0,0,1,0,.14.69.69,0,0,1-.55.17,1.6,1.6,0,0,1-.36,0,1,1,0,0,1-.15-.11c-1-1.23-1.64-2-2-2.41v2.24a.27.27,0,0,1-.06.14c-.06.11-.23.17-.51.17s-.45-.06-.51-.17a.2.2,0,0,1-.06-.14V27.49a.65.65,0,0,1,.06-.34.24.24,0,0,1,.18-.14,2,2,0,0,1,.3,0,2.5,2.5,0,0,1,.33,0,.38.38,0,0,1,.18.09l.15.14c.92,1.17,1.54,2,1.84,2.32V27.49A.77.77,0,0,1,37,27.15Z" transform="translate(-2.96 -11.84)"/><path class="cls-3" d="M39.57,27h3.68a.74.74,0,0,1,.3.05.35.35,0,0,1,.15.17,1.31,1.31,0,0,1,0,.25,1.56,1.56,0,0,1,0,.25c0,.06-.06.1-.12.11a.67.67,0,0,1-.33.06H42v3.08a1.17,1.17,0,0,1,0,.22.27.27,0,0,1-.06.14.3.3,0,0,1-.15.14,1.55,1.55,0,0,1-.33,0,1.46,1.46,0,0,1-.34,0,.44.44,0,0,1-.18-.14,1,1,0,0,0-.06-.14v-3.3H39.57a1.31,1.31,0,0,1-.33,0,.22.22,0,0,1-.13-.14,1.09,1.09,0,0,1,0-.28.81.81,0,0,1,0-.25.29.29,0,0,1,.13-.14A.87.87,0,0,1,39.57,27Z" transform="translate(-2.96 -11.84)"/><path class="cls-3" d="M47,26.93a2.41,2.41,0,0,1,1.69.64,2.08,2.08,0,0,1,.72,1.62,2.32,2.32,0,0,1-2.38,2.35,2.43,2.43,0,0,1-1.72-.67,2.2,2.2,0,0,1-.69-1.62,2.06,2.06,0,0,1,.21-.95,1.91,1.91,0,0,1,.54-.73,2.44,2.44,0,0,1,.75-.47A2.22,2.22,0,0,1,47,26.93Zm-1.21,2.32a1.15,1.15,0,0,0,.36.87,1.32,1.32,0,0,0,.88.33,1.2,1.2,0,0,0,.84-.33,1.18,1.18,0,0,0,.36-.9,1.11,1.11,0,0,0-.39-.89A1.19,1.19,0,0,0,47,28a1.29,1.29,0,0,0-.85.36A1.19,1.19,0,0,0,45.81,29.25Z" transform="translate(-2.96 -11.84)"/><path class="cls-3" d="M50.6,30.81a.5.5,0,0,1-.18-.33q0-.16.3-.42a.49.49,0,0,1,.33-.14.9.9,0,0,1,.54.31c.07.05.14.12.25.19a.71.71,0,0,0,.33.09q.6,0,.6-.45a.25.25,0,0,0-.18-.22,1,1,0,0,0-.42-.14l-.55-.14-.54-.23a1.2,1.2,0,0,1-.42-.42,1.26,1.26,0,0,1-.15-.67,1.19,1.19,0,0,1,.42-.92,1.7,1.7,0,0,1,1.21-.42,2.41,2.41,0,0,1,.72.11,1.5,1.5,0,0,1,.45.17l.15.11c.14.13.22.24.22.31a.69.69,0,0,1-.16.33.64.64,0,0,1-.48.31.7.7,0,0,1-.33-.11l-.09-.06a.24.24,0,0,0-.09-.08.6.6,0,0,0-.36-.08.57.57,0,0,0-.36.11.26.26,0,0,0-.12.25.31.31,0,0,0,.15.28,1.88,1.88,0,0,0,.42.14,3.45,3.45,0,0,1,.54.11,2.63,2.63,0,0,1,.54.17,1,1,0,0,1,.43.39A1.22,1.22,0,0,1,54,30a1.33,1.33,0,0,1-.18.7,1.25,1.25,0,0,1-.43.48,2.21,2.21,0,0,1-1.14.3,3.76,3.76,0,0,1-.61-.05,1.89,1.89,0,0,1-.45-.2,1.86,1.86,0,0,1-.48-.36Z" transform="translate(-2.96 -11.84)"/></svg>