<svg xmlns="http://www.w3.org/2000/svg" xmlns:xlink="http://www.w3.org/1999/xlink" width="500" zoomAndPan="magnify" viewBox="0 0 375 374.999991" height="500" preserveAspectRatio="xMidYMid meet" version="1.0"><defs><g/><clipPath id="a7c8be3a08"><path d="M 76.492188 0 L 298.851562 0 L 298.851562 240 L 76.492188 240 Z M 76.492188 0 " clip-rule="nonzero"/></clipPath></defs><path fill="#f6b737" d="M 253.105469 110.765625 C 249.566406 126.308594 241.566406 139.378906 231.109375 151.203125 C 225.78125 157.226562 220.246094 163.195312 216.414062 170.332031 C 214.417969 174.054688 212.957031 178.050781 212.046875 182.175781 C 211.136719 186.300781 211.359375 190.429688 210.742188 194.5625 C 209.695312 201.613281 203.003906 202.761719 196.964844 202.726562 C 188.414062 202.671875 179.847656 201.808594 171.453125 200.175781 C 170.730469 200.460938 169.738281 200.234375 169.605469 199.347656 C 169.007812 195.351562 168.425781 191.34375 167.625 187.375 C 165.972656 179.195312 163.265625 171.296875 158.074219 164.65625 C 153.425781 158.714844 147.621094 153.816406 142.558594 148.246094 C 132.808594 137.523438 127.1875 123.625 125.996094 109.226562 C 124.914062 96.148438 127.546875 82.480469 134.449219 71.226562 C 141.804688 59.234375 153.691406 51.496094 166.992188 47.480469 C 181.667969 43.054688 198.480469 41.757812 213.648438 43.847656 C 228.222656 45.859375 242.816406 52.847656 249.78125 66.445312 C 256.617188 79.789062 256.363281 96.464844 253.105469 110.765625 " fill-opacity="1" fill-rule="nonzero"/><path fill="#f59a3d" d="M 210.664062 158.460938 C 205.277344 156.550781 204.363281 148.894531 199.304688 154.515625 C 198.761719 155.121094 194.148438 179.183594 194.433594 180.273438 C 198.601562 196.144531 218.804688 161.34375 210.664062 158.460938 Z M 204.175781 59.570312 C 207.285156 57.789062 217.613281 59.171875 220.113281 55.539062 C 224.085938 49.761719 215.1875 47.523438 210.765625 47.007812 C 197.734375 45.484375 199.464844 62.261719 204.175781 59.570312 Z M 246.300781 84.324219 C 246.328125 104.0625 239.824219 128.195312 226.433594 143.257812 C 222.566406 147.605469 214.71875 155.058594 209.753906 148.210938 C 206.902344 144.277344 210.726562 125.371094 210.574219 120.835938 C 210.164062 108.890625 207.496094 97.519531 206.125 85.714844 C 204.988281 75.882812 206.414062 72.695312 215.574219 68.75 C 232.730469 61.351562 246.265625 62.78125 246.300781 84.324219 " fill-opacity="1" fill-rule="nonzero"/><path fill="#f59a3d" d="M 217.214844 216.175781 C 217.046875 219.855469 214.90625 223.476562 211.34375 224.167969 C 212.609375 227.738281 210.605469 231.566406 207.519531 233.75 C 207.609375 237.125 206.738281 240.203125 203.789062 242.503906 C 200.402344 245.148438 195.8125 245.917969 191.621094 245.949219 C 185.667969 245.996094 172.867188 243.164062 173.421875 235.355469 C 171.382812 234.84375 169.375 234.09375 167.871094 232.671875 C 166.316406 231.199219 165.5625 229.105469 166.441406 227.0625 C 167.023438 225.710938 168.0625 224.800781 169.265625 224.117188 C 165.738281 222.503906 162.859375 219.695312 162.316406 215.589844 C 161.851562 212.066406 163.722656 208.648438 166.851562 207.261719 C 164.167969 204.074219 161.734375 200.433594 162.230469 196.078125 C 162.550781 193.230469 164.40625 190.78125 166.957031 189.847656 C 167.101562 189.59375 167.355469 189.421875 167.699219 189.460938 C 167.875 189.484375 168.054688 189.503906 168.230469 189.527344 C 168.722656 189.453125 169.234375 189.425781 169.757812 189.464844 C 170.078125 189.488281 170.328125 189.613281 170.515625 189.792969 C 175.953125 190.398438 181.402344 190.792969 186.875 190.746094 C 193.117188 190.691406 199.171875 189.808594 205.355469 189.132812 C 209.457031 188.683594 214.089844 189.746094 215.300781 194.242188 C 216.359375 198.191406 215.246094 202.289062 213.003906 205.578125 C 215.9375 208.242188 217.394531 212.183594 217.214844 216.175781 " fill-opacity="1" fill-rule="nonzero"/><g clip-path="url(#a7c8be3a08)"><path fill="#2e2e30" d="M 205.59375 234.636719 C 201.34375 237.554688 196.648438 237.804688 191.640625 237.796875 C 186.082031 237.785156 180.984375 237.023438 175.628906 235.605469 C 174.839844 235.398438 174.296875 236.5625 175.058594 236.953125 C 180.304688 239.660156 186.820312 239.683594 192.582031 239.734375 C 197.382812 239.777344 203.078125 239.699219 206.65625 236.011719 C 207.324219 235.324219 206.441406 234.054688 205.59375 234.636719 Z M 208.863281 223.308594 C 205.953125 223.703125 203.101562 224.8125 200.191406 225.347656 C 197.039062 225.929688 193.839844 226.261719 190.636719 226.355469 C 184.421875 226.542969 178.289062 225.6875 172.253906 224.242188 C 171.195312 223.988281 170.757812 225.558594 171.804688 225.878906 C 178.058594 227.765625 184.605469 228.539062 191.132812 228.410156 C 196.972656 228.292969 204.378906 227.878906 209.640625 225.144531 C 210.742188 224.574219 209.898438 223.167969 208.863281 223.308594 Z M 190.699219 210.117188 C 196.722656 209.824219 204.085938 209.546875 209.632812 207.007812 C 210.386719 206.660156 210.015625 205.371094 209.203125 205.433594 C 206.285156 205.648438 203.398438 206.59375 200.503906 207.074219 C 197.089844 207.640625 193.644531 208.027344 190.191406 208.183594 C 183.695312 208.476562 177.441406 207.589844 170.996094 207.171875 C 170.082031 207.113281 169.921875 208.515625 170.78125 208.746094 C 177.097656 210.445312 184.210938 210.441406 190.699219 210.117188 Z M 221.585938 108.355469 C 221.476562 107.824219 220.765625 107.449219 219.675781 107.355469 C 219.523438 107.34375 219.367188 107.335938 219.210938 107.335938 C 216.753906 107.335938 214.265625 108.953125 212.578125 110.628906 C 213.765625 111.042969 215 111.257812 216.179688 111.257812 C 217.554688 111.257812 218.796875 110.972656 219.871094 110.402344 C 221.199219 109.703125 221.6875 108.871094 221.585938 108.355469 Z M 206.890625 111.175781 L 206.804688 111.148438 L 206.742188 111.09375 C 206.023438 110.480469 205.351562 109.800781 204.75 109.074219 C 203.699219 107.820312 202.796875 106.367188 202.066406 104.75 C 200.234375 106.007812 198.140625 106.671875 195.984375 106.671875 C 192.597656 106.671875 189.371094 105.015625 187.226562 102.207031 C 184.71875 105.367188 181.675781 107.101562 178.597656 107.101562 C 177.472656 107.101562 176.34375 106.871094 175.238281 106.414062 C 174.835938 108.578125 174.335938 110.332031 173.675781 111.890625 C 173.542969 112.207031 173.320312 112.589844 173.085938 112.996094 C 172.769531 113.539062 172.242188 114.449219 172.277344 114.761719 C 172.328125 115.210938 173.199219 116.222656 173.835938 116.964844 C 174.390625 117.609375 174.910156 118.21875 175.175781 118.710938 C 175.941406 120.121094 176.605469 121.742188 177.214844 123.660156 C 179.488281 130.859375 179.871094 138.671875 180.046875 145.425781 C 180.242188 152.792969 180.054688 160.292969 179.871094 167.546875 C 179.828125 169.242188 179.785156 170.933594 179.746094 172.621094 C 179.652344 176.847656 179.527344 181.242188 179.375 185.679688 C 179.367188 185.933594 179.375 186.394531 179.390625 186.972656 C 179.402344 187.628906 179.414062 188.28125 179.417969 188.921875 C 182.882812 189.097656 186.351562 189.242188 189.851562 189.160156 C 194.136719 189.0625 198.367188 188.664062 202.601562 188.207031 C 202.246094 186.28125 202.179688 183.730469 202.171875 181.148438 C 202.167969 180.414062 202.167969 179.78125 202.144531 179.40625 C 201.648438 171.121094 201.644531 162.171875 202.136719 151.230469 C 202.226562 149.191406 202.304688 147.144531 202.382812 145.09375 C 202.636719 138.417969 202.898438 131.511719 203.660156 124.816406 C 203.941406 122.355469 204.28125 120.378906 204.734375 118.59375 C 204.878906 118.027344 205.191406 117.199219 205.554688 116.238281 C 206.082031 114.859375 207.308594 111.632812 206.890625 111.175781 Z M 172.800781 100.355469 C 172.832031 100.132812 172.867188 99.902344 172.902344 99.664062 C 173.34375 96.644531 174.007812 92.082031 172.761719 89.925781 C 172.363281 89.238281 171.796875 88.828125 171.242188 88.828125 C 170.835938 88.828125 170.433594 89.042969 170.046875 89.472656 C 169.203125 90.398438 169.726562 92.476562 170.039062 93.714844 L 170.105469 93.980469 C 170.765625 96.640625 171.652344 98.738281 172.800781 100.355469 Z M 187.671875 95.464844 C 188.710938 93.734375 189.84375 91.695312 190.035156 89.8125 C 190.117188 88.992188 189.824219 87.652344 189.308594 87.082031 C 189.1875 86.945312 189.066406 86.875 188.953125 86.875 C 188.84375 86.875 188.542969 86.945312 188.074219 87.585938 C 186.585938 89.609375 186.957031 92.8125 187.671875 95.464844 Z M 203.660156 98.527344 C 206.167969 95.320312 207.277344 92.753906 206.96875 90.890625 C 206.785156 89.777344 205.785156 88.796875 204.832031 88.796875 C 204.0625 88.796875 203.660156 89.464844 203.460938 90.027344 C 202.785156 91.898438 202.855469 94.757812 203.660156 98.527344 Z M 166.753906 115.117188 C 166.117188 114.898438 165.453125 114.785156 164.789062 114.785156 C 163.535156 114.785156 162.429688 115.179688 161.609375 115.90625 C 162.179688 116.175781 162.777344 116.3125 163.398438 116.3125 C 164.691406 116.3125 165.863281 115.738281 166.753906 115.117188 Z M 224.753906 107.84375 C 225.046875 110.269531 223.203125 113.371094 219.210938 114.34375 C 218.335938 114.554688 217.390625 114.664062 216.398438 114.664062 C 215.765625 114.664062 215.105469 114.617188 214.441406 114.53125 C 214.03125 114.480469 213.351562 114.226562 212.566406 113.929688 C 211.800781 113.644531 210.75 113.25 210.371094 113.25 C 209.511719 113.492188 208.3125 115.484375 207.429688 123.585938 L 207.375 124.078125 C 205.195312 142.960938 204.621094 162.078125 205.667969 180.902344 C 205.679688 181.097656 205.730469 181.527344 205.796875 182.078125 C 206.035156 184.050781 206.253906 186.113281 206.253906 187.800781 C 206.996094 187.71875 207.738281 187.636719 208.480469 187.554688 C 209.648438 187.425781 209.890625 189.382812 208.753906 189.59375 C 202.566406 190.746094 196.132812 191.109375 189.851562 191.226562 C 183.605469 191.347656 177.105469 191.308594 170.941406 190.210938 C 169.976562 190.039062 170.222656 188.5 171.167969 188.527344 C 172.6875 188.578125 174.207031 188.648438 175.722656 188.730469 C 175.730469 185.621094 175.929688 181.316406 176.308594 175.492188 C 176.414062 173.925781 176.492188 172.6875 176.503906 172.152344 C 176.632812 164.992188 176.746094 156.539062 176.628906 148.183594 C 176.53125 141.085938 176.152344 133.519531 174.066406 126.277344 C 173.996094 126.046875 173.917969 125.75 173.828125 125.414062 C 173.257812 123.304688 171.929688 118.363281 170.207031 117.636719 C 170.203125 117.636719 170.167969 117.621094 170.085938 117.621094 C 169.574219 117.621094 168.523438 118.058594 167.507812 118.480469 C 166.035156 119.09375 164.371094 119.785156 163.058594 119.785156 C 162.964844 119.785156 162.871094 119.78125 162.78125 119.773438 C 160.886719 119.621094 158.421875 118.839844 157.703125 117.140625 C 157.40625 116.441406 157.300781 115.300781 158.503906 113.835938 C 159.898438 112.144531 162.027344 111.210938 164.503906 111.210938 C 164.765625 111.210938 165.03125 111.222656 165.289062 111.246094 C 165.867188 111.289062 166.550781 111.566406 167.214844 111.832031 C 167.839844 112.082031 168.488281 112.34375 168.886719 112.34375 C 168.914062 112.34375 168.9375 112.34375 168.960938 112.339844 C 169.769531 112.25 170.234375 111.074219 170.683594 109.941406 L 170.949219 109.277344 C 171.378906 108.21875 171.96875 106.765625 171.96875 105.730469 C 171.96875 104.371094 171.691406 104.042969 171.019531 103.246094 C 170.765625 102.945312 170.476562 102.605469 170.144531 102.140625 C 168.242188 99.484375 165.300781 92.773438 166.789062 88.566406 C 167.363281 86.929688 168.535156 85.855469 170.273438 85.375 C 170.800781 85.230469 171.304688 85.15625 171.773438 85.15625 C 172.890625 85.15625 173.835938 85.5625 174.585938 86.367188 C 176.761719 88.699219 176.660156 93.78125 176.519531 95.859375 C 176.484375 96.347656 176.328125 97.1875 176.144531 98.160156 C 175.875 99.585938 175.316406 102.558594 175.621094 103.039062 C 176.148438 103.789062 177.167969 103.945312 177.933594 103.945312 C 179.4375 103.945312 181.238281 103.335938 182.109375 102.746094 C 183.167969 102.03125 184.429688 100.886719 184.847656 99.9375 C 185.328125 98.863281 185.113281 98.152344 184.785156 97.078125 C 184.652344 96.632812 184.496094 96.128906 184.382812 95.539062 C 183.632812 91.691406 183.882812 88.644531 185.128906 86.496094 C 186.027344 84.945312 187.789062 83.382812 189.699219 83.382812 C 190.441406 83.382812 191.140625 83.617188 191.78125 84.070312 C 194.566406 86.058594 193.5625 90.320312 192.996094 92.058594 C 192.742188 92.855469 191.992188 94.019531 191.195312 95.253906 C 190.292969 96.652344 189.054688 98.566406 189.117188 99.285156 C 189.25 100.769531 192.425781 102.722656 194.027344 103.171875 C 194.539062 103.316406 195.203125 103.394531 195.898438 103.394531 C 198.070312 103.394531 200.535156 102.664062 200.820312 101.0625 C 201.003906 100.007812 200.617188 98.539062 200.246094 97.121094 C 199.921875 95.894531 199.585938 94.628906 199.585938 93.527344 C 199.585938 91.753906 200.167969 89.714844 201.148438 88.070312 C 202.277344 86.179688 203.730469 85.136719 205.242188 85.136719 C 206.609375 85.136719 207.910156 85.972656 209.117188 87.621094 C 210.824219 89.953125 210.71875 93.164062 208.8125 96.910156 L 206.414062 100.550781 C 206.160156 100.871094 205.9375 101.128906 205.742188 101.347656 C 204.921875 102.292969 204.871094 102.351562 205.46875 103.96875 C 206.015625 105.449219 207.25 106.882812 207.933594 107.605469 C 208.324219 108.015625 208.976562 108.703125 209.195312 108.703125 C 209.300781 108.703125 209.539062 108.542969 209.816406 108.351562 C 210.035156 108.203125 210.292969 108.027344 210.621094 107.832031 C 211.269531 107.445312 211.867188 107.035156 212.445312 106.640625 C 214.121094 105.496094 215.707031 104.414062 218.125 104.101562 C 218.589844 104.042969 219.046875 104.011719 219.476562 104.011719 C 223.027344 104.011719 224.53125 105.992188 224.753906 107.84375 Z M 270.589844 171.136719 C 267.074219 168.226562 263.265625 165.691406 259.757812 162.753906 C 256.402344 159.945312 253.359375 156.691406 249.832031 154.097656 C 248.714844 153.273438 247.140625 154.894531 247.917969 156.011719 C 250.503906 159.707031 254.160156 162.707031 257.632812 165.546875 C 261.140625 168.414062 264.804688 171.335938 268.847656 173.398438 C 270.21875 174.09375 271.917969 172.238281 270.589844 171.136719 Z M 298.089844 137.917969 C 293.628906 134.660156 288.574219 132.15625 283.691406 129.601562 C 279.214844 127.257812 274.113281 123.804688 269.070312 123.003906 C 267.699219 122.785156 266.28125 124.460938 267.566406 125.589844 C 271.429688 128.988281 277.050781 130.832031 281.617188 133.152344 C 286.550781 135.664062 291.363281 138.535156 296.457031 140.707031 C 298.363281 141.523438 299.796875 139.160156 298.089844 137.917969 Z M 271.996094 72.164062 C 276.292969 71.472656 280.515625 69.976562 284.691406 68.761719 C 288.871094 67.542969 293.226562 66.523438 297.261719 64.894531 C 299.058594 64.171875 298.40625 61.628906 296.460938 61.976562 C 292.003906 62.773438 287.605469 64.292969 283.257812 65.539062 C 279.105469 66.730469 274.820312 67.730469 270.835938 69.417969 C 269.148438 70.132812 270.460938 72.414062 271.996094 72.164062 Z M 257.453125 16.695312 C 258.535156 15.1875 256.070312 13.8125 254.984375 15.253906 C 251.925781 19.304688 248.792969 23.304688 245.585938 27.242188 C 242.671875 30.816406 239.386719 34.222656 236.8125 38.046875 C 235.878906 39.429688 237.894531 40.8125 239.039062 39.765625 C 242.695312 36.417969 245.734375 32.140625 248.785156 28.246094 C 251.753906 24.457031 254.636719 20.601562 257.453125 16.695312 Z M 189.851562 30.808594 C 190.464844 26.046875 189.664062 20.882812 189.5625 16.085938 C 189.457031 11.171875 189.503906 6.265625 189.460938 1.355469 C 189.445312 -0.472656 186.785156 -0.433594 186.65625 1.355469 C 186.285156 6.425781 186.210938 11.523438 186.234375 16.609375 C 186.253906 21.316406 185.890625 26.597656 187.027344 31.191406 C 187.449219 32.894531 189.660156 32.300781 189.851562 30.808594 Z M 123.65625 37.144531 C 120.691406 33.25 117.878906 28.996094 114.511719 25.433594 C 113.355469 24.210938 111.332031 25.78125 112.191406 27.222656 C 114.804688 31.613281 118.273438 35.648438 121.34375 39.730469 C 124.261719 43.609375 127.019531 48.035156 130.519531 51.417969 C 131.707031 52.566406 133.558594 51.113281 132.785156 49.667969 C 130.394531 45.203125 126.71875 41.167969 123.65625 37.144531 Z M 105.914062 90.070312 C 109.1875 90.484375 112.632812 91.164062 115.933594 90.867188 C 117.714844 90.707031 118.1875 88.257812 116.367188 87.679688 C 113.535156 86.789062 110.429688 86.644531 107.496094 86.28125 C 103.984375 85.847656 100.472656 85.382812 96.96875 84.890625 C 90.679688 84.007812 84.410156 82.828125 78.101562 82.132812 C 76.222656 81.925781 75.875 84.941406 77.660156 85.394531 C 83.980469 86.996094 90.527344 87.894531 96.96875 88.847656 C 99.945312 89.289062 102.925781 89.695312 105.914062 90.070312 Z M 120.898438 143.574219 C 116.820312 146.371094 112.269531 148.5 108.007812 151.015625 C 104.058594 153.347656 100.066406 156.765625 95.773438 158.324219 C 94.335938 158.847656 93.523438 156.921875 94.386719 155.945312 C 95.988281 154.132812 98.285156 152.910156 100.308594 151.613281 C 102.398438 150.269531 104.511719 148.964844 106.648438 147.703125 C 110.859375 145.214844 115.164062 142.585938 119.804688 140.972656 C 121.421875 140.410156 122.148438 142.71875 120.898438 143.574219 " fill-opacity="1" fill-rule="nonzero"/></g><path fill="#f59a3d" d="M 145.039062 126.644531 C 144.292969 124.53125 144.015625 122.355469 142.8125 120.441406 C 142.519531 119.96875 141.804688 120.058594 141.644531 120.59375 C 140.300781 124.988281 142.242188 130.3125 144.445312 134.144531 C 146.253906 137.292969 149.125 142.425781 153.0625 142.878906 C 153.546875 142.933594 153.988281 142.414062 153.976562 141.964844 C 153.890625 138.421875 149.921875 135.453125 148.109375 132.648438 C 146.886719 130.765625 145.785156 128.765625 145.039062 126.644531 Z M 157.847656 70.9375 C 152.53125 74.191406 148.753906 79.453125 146.445312 85.171875 C 143.6875 92.015625 143.90625 99.191406 142.234375 106.242188 C 141.84375 107.890625 139.046875 108.03125 138.753906 106.242188 C 137.519531 98.566406 139.371094 89.675781 142.449219 82.613281 C 145.230469 76.238281 149.785156 70.964844 155.9375 67.671875 C 158.085938 66.523438 159.921875 69.664062 157.847656 70.9375 " fill-opacity="1" fill-rule="nonzero"/><g fill="#ff1616" fill-opacity="1"><g transform="translate(78.766901, 311.396337)"><g><path d="M 11.09375 -51.015625 C 11.15625 -48.265625 11.242188 -44.28125 11.359375 -39.0625 C 11.472656 -33.84375 11.53125 -30.71875 11.53125 -29.6875 C 17.601562 -30.257812 20.925781 -30.570312 21.5 -30.625 C 23.800781 -30.914062 25.296875 -30.195312 25.984375 -28.46875 C 26.328125 -27.613281 26.367188 -26.738281 26.109375 -25.84375 C 25.847656 -24.957031 25.347656 -24.203125 24.609375 -23.578125 C 23.628906 -22.828125 22.164062 -22.425781 20.21875 -22.375 C 19.414062 -22.375 16.519531 -22.316406 11.53125 -22.203125 C 11.414062 -16.234375 11.585938 -11.472656 12.046875 -7.921875 C 15.316406 -7.628906 17.035156 -7.484375 17.203125 -7.484375 C 18.066406 -7.484375 19.257812 -7.453125 20.78125 -7.390625 C 22.300781 -7.335938 23.40625 -7.3125 24.09375 -7.3125 C 24.945312 -7.257812 25.660156 -7.144531 26.234375 -6.96875 C 27.210938 -6.675781 27.957031 -6.15625 28.46875 -5.40625 C 28.988281 -4.664062 29.222656 -3.835938 29.171875 -2.921875 C 29.109375 -0.972656 28.070312 0.285156 26.0625 0.859375 C 25.601562 1.035156 25.234375 1.09375 24.953125 1.03125 C 16.742188 0.632812 12.125 0.378906 11.09375 0.265625 C 8.863281 -0.0234375 7.160156 -0.769531 5.984375 -1.96875 C 4.804688 -3.175781 4.046875 -4.898438 3.703125 -7.140625 C 3.359375 -9.609375 3.1875 -12.101562 3.1875 -14.625 C 3.125 -21.625 3.09375 -29.851562 3.09375 -39.3125 C 3.09375 -40.175781 3.148438 -42.3125 3.265625 -45.71875 C 3.378906 -49.132812 3.378906 -51.757812 3.265625 -53.59375 C 3.210938 -55.375 3.671875 -56.691406 4.640625 -57.546875 C 5.617188 -58.410156 7 -58.84375 8.78125 -58.84375 C 9.632812 -58.84375 10.804688 -58.769531 12.296875 -58.625 C 13.796875 -58.488281 14.773438 -58.421875 15.234375 -58.421875 C 16.316406 -58.359375 17.945312 -58.285156 20.125 -58.203125 C 22.3125 -58.117188 23.945312 -58.046875 25.03125 -57.984375 C 26.289062 -57.929688 27.265625 -57.757812 27.953125 -57.46875 C 28.816406 -57.175781 29.460938 -56.65625 29.890625 -55.90625 C 30.328125 -55.164062 30.515625 -54.367188 30.453125 -53.515625 C 30.398438 -52.597656 30.097656 -51.820312 29.546875 -51.1875 C 29.003906 -50.5625 28.300781 -50.128906 27.4375 -49.890625 C 26.582031 -49.722656 25.582031 -49.695312 24.4375 -49.8125 C 23.289062 -49.863281 18.84375 -50.265625 11.09375 -51.015625 Z M 11.09375 -51.015625 "/></g></g></g><g fill="#ff1616" fill-opacity="1"><g transform="translate(109.908418, 311.396337)"><g><path d="M 2.671875 -47.65625 C 2.609375 -47.65625 2.492188 -47.65625 2.328125 -47.65625 C 2.328125 -52.820312 2.328125 -55.773438 2.328125 -56.515625 C 2.378906 -57.554688 2.519531 -58.390625 2.75 -59.015625 C 3.320312 -60.503906 4.441406 -61.25 6.109375 -61.25 C 7.710938 -61.195312 8.800781 -60.453125 9.375 -59.015625 C 9.601562 -58.328125 9.75 -57.523438 9.8125 -56.609375 C 10.09375 -53.109375 10.476562 -47.972656 10.96875 -41.203125 C 11.457031 -34.441406 11.816406 -29.507812 12.046875 -26.40625 C 12.554688 -19.757812 12.925781 -15.226562 13.15625 -12.8125 C 13.269531 -11.5 13.5 -10.507812 13.84375 -9.84375 C 14.195312 -9.1875 14.71875 -8.6875 15.40625 -8.34375 C 16.09375 -8 17.066406 -7.742188 18.328125 -7.578125 C 21.710938 -7.171875 24.578125 -7.226562 26.921875 -7.75 C 27.554688 -7.863281 28.21875 -7.921875 28.90625 -7.921875 C 30 -7.859375 30.914062 -7.507812 31.65625 -6.875 C 32.40625 -6.25 32.835938 -5.445312 32.953125 -4.46875 C 33.117188 -3.4375 32.941406 -2.488281 32.421875 -1.625 C 31.910156 -0.769531 31.140625 -0.195312 30.109375 0.09375 C 28.847656 0.488281 27.472656 0.742188 25.984375 0.859375 C 21.910156 1.203125 18.179688 1.003906 14.796875 0.265625 C 9.515625 -0.941406 6.300781 -4.300781 5.15625 -9.8125 C 4.8125 -11.582031 4.582031 -13.359375 4.46875 -15.140625 C 3.957031 -23.109375 3.382812 -32.398438 2.75 -43.015625 C 2.695312 -43.191406 2.671875 -44.738281 2.671875 -47.65625 Z M 2.671875 -47.65625 "/></g></g></g><g fill="#ff1616" fill-opacity="1"><g transform="translate(142.168288, 311.396337)"><g><path d="M 11.09375 -51.015625 C 11.15625 -48.265625 11.242188 -44.28125 11.359375 -39.0625 C 11.472656 -33.84375 11.53125 -30.71875 11.53125 -29.6875 C 17.601562 -30.257812 20.925781 -30.570312 21.5 -30.625 C 23.800781 -30.914062 25.296875 -30.195312 25.984375 -28.46875 C 26.328125 -27.613281 26.367188 -26.738281 26.109375 -25.84375 C 25.847656 -24.957031 25.347656 -24.203125 24.609375 -23.578125 C 23.628906 -22.828125 22.164062 -22.425781 20.21875 -22.375 C 19.414062 -22.375 16.519531 -22.316406 11.53125 -22.203125 C 11.414062 -16.234375 11.585938 -11.472656 12.046875 -7.921875 C 15.316406 -7.628906 17.035156 -7.484375 17.203125 -7.484375 C 18.066406 -7.484375 19.257812 -7.453125 20.78125 -7.390625 C 22.300781 -7.335938 23.40625 -7.3125 24.09375 -7.3125 C 24.945312 -7.257812 25.660156 -7.144531 26.234375 -6.96875 C 27.210938 -6.675781 27.957031 -6.15625 28.46875 -5.40625 C 28.988281 -4.664062 29.222656 -3.835938 29.171875 -2.921875 C 29.109375 -0.972656 28.070312 0.285156 26.0625 0.859375 C 25.601562 1.035156 25.234375 1.09375 24.953125 1.03125 C 16.742188 0.632812 12.125 0.378906 11.09375 0.265625 C 8.863281 -0.0234375 7.160156 -0.769531 5.984375 -1.96875 C 4.804688 -3.175781 4.046875 -4.898438 3.703125 -7.140625 C 3.359375 -9.609375 3.1875 -12.101562 3.1875 -14.625 C 3.125 -21.625 3.09375 -29.851562 3.09375 -39.3125 C 3.09375 -40.175781 3.148438 -42.3125 3.265625 -45.71875 C 3.378906 -49.132812 3.378906 -51.757812 3.265625 -53.59375 C 3.210938 -55.375 3.671875 -56.691406 4.640625 -57.546875 C 5.617188 -58.410156 7 -58.84375 8.78125 -58.84375 C 9.632812 -58.84375 10.804688 -58.769531 12.296875 -58.625 C 13.796875 -58.488281 14.773438 -58.421875 15.234375 -58.421875 C 16.316406 -58.359375 17.945312 -58.285156 20.125 -58.203125 C 22.3125 -58.117188 23.945312 -58.046875 25.03125 -57.984375 C 26.289062 -57.929688 27.265625 -57.757812 27.953125 -57.46875 C 28.816406 -57.175781 29.460938 -56.65625 29.890625 -55.90625 C 30.328125 -55.164062 30.515625 -54.367188 30.453125 -53.515625 C 30.398438 -52.597656 30.097656 -51.820312 29.546875 -51.1875 C 29.003906 -50.5625 28.300781 -50.128906 27.4375 -49.890625 C 26.582031 -49.722656 25.582031 -49.695312 24.4375 -49.8125 C 23.289062 -49.863281 18.84375 -50.265625 11.09375 -51.015625 Z M 11.09375 -51.015625 "/></g></g></g><g fill="#ff1616" fill-opacity="1"><g transform="translate(173.309805, 311.396337)"><g><path d="M 19.359375 -47.921875 C 19.816406 -47.285156 22.597656 -43.359375 27.703125 -36.140625 C 28.566406 -37.398438 29 -38.054688 29 -38.109375 C 31.632812 -42.242188 34.441406 -47.804688 37.421875 -54.796875 C 38.171875 -56.578125 38.742188 -57.785156 39.140625 -58.421875 C 40.234375 -60.535156 41.8125 -61.421875 43.875 -61.078125 C 44.851562 -60.910156 45.671875 -60.484375 46.328125 -59.796875 C 46.984375 -59.109375 47.398438 -58.21875 47.578125 -57.125 C 47.972656 -53.570312 48.203125 -50.5625 48.265625 -48.09375 C 48.316406 -40.582031 48.457031 -26.1875 48.6875 -4.90625 C 48.6875 -4.101562 48.601562 -3.359375 48.4375 -2.671875 C 48.144531 -1.691406 47.640625 -0.898438 46.921875 -0.296875 C 46.210938 0.304688 45.367188 0.578125 44.390625 0.515625 C 43.359375 0.515625 42.46875 0.1875 41.71875 -0.46875 C 40.976562 -1.132812 40.519531 -1.984375 40.34375 -3.015625 C 40.289062 -3.359375 40.265625 -4.160156 40.265625 -5.421875 C 40.265625 -7.941406 40.25 -11.148438 40.21875 -15.046875 C 40.1875 -18.953125 40.171875 -22.640625 40.171875 -26.109375 C 40.171875 -29.578125 40.171875 -32.800781 40.171875 -35.78125 C 40.171875 -35.90625 40.113281 -37.34375 40 -40.09375 C 39.257812 -39.0625 38.890625 -38.515625 38.890625 -38.453125 C 36.078125 -33.867188 34.613281 -31.460938 34.5 -31.234375 C 33.582031 -29.910156 32.550781 -28.789062 31.40625 -27.875 C 29.96875 -26.664062 28.457031 -26.144531 26.875 -26.3125 C 25.300781 -26.488281 23.941406 -27.351562 22.796875 -28.90625 C 21.816406 -30.28125 18.40625 -35.15625 12.5625 -43.53125 C 11.875 -44.507812 11.382812 -45.140625 11.09375 -45.421875 C 11.09375 -43.066406 11.09375 -41.832031 11.09375 -41.71875 C 11.15625 -40.914062 11.253906 -39.3125 11.390625 -36.90625 C 11.535156 -34.5 11.640625 -32.632812 11.703125 -31.3125 C 11.816406 -28.101562 12.070312 -19.382812 12.46875 -5.15625 C 12.53125 -4.125 12.53125 -3.378906 12.46875 -2.921875 C 12.351562 -1.835938 11.9375 -0.9375 11.21875 -0.21875 C 10.507812 0.5 9.640625 0.890625 8.609375 0.953125 C 7.566406 1.003906 6.660156 0.710938 5.890625 0.078125 C 5.117188 -0.546875 4.617188 -1.375 4.390625 -2.40625 C 4.273438 -2.8125 4.1875 -3.382812 4.125 -4.125 C 3.664062 -20.007812 3.378906 -30.078125 3.265625 -34.328125 C 3.148438 -36.960938 3.007812 -43.53125 2.84375 -54.03125 C 2.84375 -55 2.867188 -55.859375 2.921875 -56.609375 C 3.097656 -58.554688 4.242188 -59.90625 6.359375 -60.65625 C 8.023438 -61.226562 9.488281 -60.710938 10.75 -59.109375 C 14.363281 -54.515625 17.234375 -50.785156 19.359375 -47.921875 Z M 19.359375 -47.921875 "/></g></g></g><g fill="#ff1616" fill-opacity="1"><g transform="translate(225.09765, 311.396337)"><g><path d="M 11.09375 -52.90625 C 14.539062 -56.46875 19.332031 -58.25 25.46875 -58.25 C 28.675781 -58.476562 32.316406 -57.300781 36.390625 -54.71875 C 39.773438 -52.59375 42.1875 -49.640625 43.625 -45.859375 C 45.738281 -40.347656 46.335938 -34.265625 45.421875 -27.609375 C 44.679688 -22.160156 43.363281 -17.429688 41.46875 -13.421875 C 39.75 -9.691406 37.566406 -6.648438 34.921875 -4.296875 C 30.679688 -0.453125 25.976562 1.296875 20.8125 0.953125 C 14.789062 0.546875 9.890625 -2.320312 6.109375 -7.65625 C 3.703125 -11.039062 2.238281 -15.082031 1.71875 -19.78125 C 0.800781 -28.039062 2.148438 -36.414062 5.765625 -44.90625 C 7.085938 -48.0625 8.863281 -50.726562 11.09375 -52.90625 Z M 33.890625 -16.859375 C 36.015625 -21.503906 37.222656 -27.039062 37.515625 -33.46875 C 37.566406 -36.050781 37.132812 -38.832031 36.21875 -41.8125 C 35.1875 -45.082031 33.4375 -47.144531 30.96875 -48 C 30.800781 -48.0625 30.570312 -48.191406 30.28125 -48.390625 C 30 -48.585938 29.828125 -48.6875 29.765625 -48.6875 C 27.523438 -50.070312 25.257812 -50.617188 22.96875 -50.328125 C 20.675781 -50.035156 18.640625 -48.890625 16.859375 -46.890625 C 15.484375 -45.285156 14.304688 -43.421875 13.328125 -41.296875 C 10.753906 -35.503906 9.609375 -29.253906 9.890625 -22.546875 C 10.003906 -19.046875 10.835938 -15.972656 12.390625 -13.328125 C 13.242188 -11.835938 14.34375 -10.59375 15.6875 -9.59375 C 17.039062 -8.59375 18.476562 -7.90625 20 -7.53125 C 21.519531 -7.15625 23.15625 -7.253906 24.90625 -7.828125 C 26.65625 -8.398438 28.304688 -9.429688 29.859375 -10.921875 C 31.460938 -12.523438 32.804688 -14.503906 33.890625 -16.859375 Z M 33.890625 -16.859375 "/></g></g></g><g fill="#ff1616" fill-opacity="1"><g transform="translate(272.326086, 311.396337)"><g><path d="M 29.765625 -2.75 C 25.347656 -0.34375 21.332031 0.773438 17.71875 0.609375 C 14.789062 0.722656 12.066406 0.175781 9.546875 -1.03125 C 4.328125 -3.550781 1.460938 -7.765625 0.953125 -13.671875 C 0.773438 -15.972656 1.429688 -18.328125 2.921875 -20.734375 C 3.554688 -21.648438 4.359375 -22.265625 5.328125 -22.578125 C 6.304688 -22.898438 7.253906 -22.832031 8.171875 -22.375 C 9.148438 -21.914062 9.835938 -21.222656 10.234375 -20.296875 C 10.640625 -19.378906 10.695312 -18.378906 10.40625 -17.296875 C 10.351562 -17.117188 10.238281 -16.800781 10.0625 -16.34375 C 9.375 -14.675781 9.34375 -13.082031 9.96875 -11.5625 C 10.601562 -10.050781 11.78125 -9.007812 13.5 -8.4375 C 14.820312 -7.976562 16.457031 -7.75 18.40625 -7.75 C 20.59375 -7.6875 23.117188 -8.515625 25.984375 -10.234375 C 28.910156 -12.015625 29.828125 -14.539062 28.734375 -17.8125 C 27.867188 -20.5625 26.003906 -22.851562 23.140625 -24.6875 C 22.628906 -24.976562 20.335938 -26.210938 16.265625 -28.390625 C 15.921875 -28.554688 15.445312 -28.785156 14.84375 -29.078125 C 14.238281 -29.367188 13.675781 -29.640625 13.15625 -29.890625 C 12.644531 -30.148438 12.1875 -30.425781 11.78125 -30.71875 C 8.914062 -32.4375 6.921875 -34.6875 5.796875 -37.46875 C 4.679688 -40.25 4.5 -43.300781 5.25 -46.625 C 6.164062 -50.582031 8.097656 -53.804688 11.046875 -56.296875 C 14.003906 -58.796875 17.316406 -60.273438 20.984375 -60.734375 C 25.285156 -61.304688 29.070312 -59.988281 32.34375 -56.78125 C 33.4375 -55.6875 34.007812 -54.367188 34.0625 -52.828125 C 34.125 -52.191406 34.050781 -51.613281 33.84375 -51.09375 C 33.644531 -50.582031 33.34375 -50.125 32.9375 -49.71875 C 32.539062 -49.320312 32.085938 -49.035156 31.578125 -48.859375 C 29.742188 -48.285156 28.28125 -48.863281 27.1875 -50.59375 C 26.664062 -51.445312 25.890625 -52.101562 24.859375 -52.5625 C 23.828125 -53.019531 22.796875 -53.109375 21.765625 -52.828125 C 19.816406 -52.304688 18.007812 -51.285156 16.34375 -49.765625 C 14.675781 -48.242188 13.671875 -46.394531 13.328125 -44.21875 C 12.816406 -41.351562 13.765625 -39.203125 16.171875 -37.765625 C 16.691406 -37.484375 17.4375 -37.097656 18.40625 -36.609375 C 19.382812 -36.117188 20.015625 -35.816406 20.296875 -35.703125 C 24.660156 -33.347656 27.1875 -31.941406 27.875 -31.484375 C 31.71875 -29.078125 34.472656 -25.894531 36.140625 -21.9375 C 36.828125 -20.382812 37.253906 -18.734375 37.421875 -16.984375 C 37.597656 -15.242188 37.484375 -13.507812 37.078125 -11.78125 C 36.679688 -10.0625 35.847656 -8.398438 34.578125 -6.796875 C 33.316406 -5.191406 31.710938 -3.84375 29.765625 -2.75 Z M 29.765625 -2.75 "/></g></g></g><g fill="#f59a3d" fill-opacity="1"><g transform="translate(92.770504, 359.803764)"><g><path d="M 17.109375 -30.3125 C 18.191406 -30.3125 18.988281 -30.21875 19.5 -30.03125 C 20.007812 -29.851562 20.375 -29.554688 20.59375 -29.140625 C 20.894531 -28.515625 21.046875 -27.660156 21.046875 -26.578125 L 21.046875 -10.578125 C 21.046875 -7.691406 20 -5.140625 17.90625 -2.921875 C 15.8125 -0.703125 13.132812 0.40625 9.875 0.40625 C 8.0625 0.40625 6.453125 0.0078125 5.046875 -0.78125 C 3.773438 -1.46875 2.890625 -2.085938 2.390625 -2.640625 L 2.0625 -2.984375 C 1.101562 -3.992188 0.625 -4.863281 0.625 -5.59375 C 0.625 -6.332031 1.101562 -7.195312 2.0625 -8.1875 C 3.03125 -9.175781 3.882812 -9.671875 4.625 -9.671875 C 5.375 -9.671875 6.203125 -9.21875 7.109375 -8.3125 C 8.015625 -7.40625 9 -6.953125 10.0625 -6.953125 C 11.125 -6.953125 12 -7.304688 12.6875 -8.015625 C 13.375 -8.734375 13.71875 -9.6875 13.71875 -10.875 L 13.71875 -26.328125 C 13.71875 -27.984375 13.992188 -29.046875 14.546875 -29.515625 C 15.179688 -30.046875 16.035156 -30.3125 17.109375 -30.3125 Z M 17.109375 -30.3125 "/></g></g></g><g fill="#f59a3d" fill-opacity="1"><g transform="translate(119.593926, 359.803764)"><g><path d="M 21.453125 -29.1875 C 21.734375 -29.625 22.132812 -29.925781 22.65625 -30.09375 C 23.175781 -30.257812 23.828125 -30.34375 24.609375 -30.34375 C 25.398438 -30.34375 26.03125 -30.273438 26.5 -30.140625 C 26.96875 -30.003906 27.328125 -29.835938 27.578125 -29.640625 C 27.828125 -29.453125 28.003906 -29.164062 28.109375 -28.78125 C 28.273438 -28.3125 28.359375 -27.59375 28.359375 -26.625 L 28.359375 -14.140625 C 28.359375 -10.503906 27.226562 -7.195312 24.96875 -4.21875 C 23.863281 -2.8125 22.441406 -1.671875 20.703125 -0.796875 C 18.972656 0.0664062 17.050781 0.5 14.9375 0.5 C 12.832031 0.5 10.914062 0.0546875 9.1875 -0.828125 C 7.46875 -1.710938 6.070312 -2.867188 5 -4.296875 C 2.769531 -7.222656 1.65625 -10.53125 1.65625 -14.21875 L 1.65625 -26.671875 C 1.65625 -27.328125 1.675781 -27.8125 1.71875 -28.125 C 1.757812 -28.445312 1.890625 -28.8125 2.109375 -29.21875 C 2.328125 -29.632812 2.695312 -29.925781 3.21875 -30.09375 C 3.75 -30.257812 4.453125 -30.34375 5.328125 -30.34375 C 6.210938 -30.34375 6.914062 -30.257812 7.4375 -30.09375 C 7.96875 -29.925781 8.328125 -29.640625 8.515625 -29.234375 C 8.847656 -28.597656 9.015625 -27.726562 9.015625 -26.625 L 9.015625 -14.21875 C 9.015625 -12.539062 9.425781 -10.941406 10.25 -9.421875 C 10.664062 -8.648438 11.285156 -8.03125 12.109375 -7.5625 C 12.941406 -7.09375 13.921875 -6.859375 15.046875 -6.859375 C 17.054688 -6.859375 18.554688 -7.601562 19.546875 -9.09375 C 20.546875 -10.582031 21.046875 -12.304688 21.046875 -14.265625 L 21.046875 -26.921875 C 21.046875 -27.992188 21.179688 -28.75 21.453125 -29.1875 Z M 21.453125 -29.1875 "/></g></g></g><g fill="#f59a3d" fill-opacity="1"><g transform="translate(153.731923, 359.803764)"><g><path d="M 21.234375 -29.046875 C 21.492188 -29.523438 21.882812 -29.847656 22.40625 -30.015625 C 22.925781 -30.179688 23.578125 -30.265625 24.359375 -30.265625 C 25.148438 -30.265625 25.785156 -30.191406 26.265625 -30.046875 C 26.753906 -29.910156 27.113281 -29.742188 27.34375 -29.546875 C 27.582031 -29.359375 27.753906 -29.070312 27.859375 -28.6875 C 28.023438 -28.25 28.109375 -27.546875 28.109375 -26.578125 L 28.109375 -3.640625 C 28.109375 -2.972656 28.085938 -2.488281 28.046875 -2.1875 C 28.003906 -1.882812 27.875 -1.523438 27.65625 -1.109375 C 27.269531 -0.367188 26.195312 0 24.4375 0 C 23.363281 0 22.617188 -0.0820312 22.203125 -0.25 C 21.785156 -0.414062 21.441406 -0.675781 21.171875 -1.03125 C 14.960938 -9.300781 10.882812 -14.703125 8.9375 -17.234375 L 8.9375 -3.640625 C 8.9375 -2.972656 8.914062 -2.488281 8.875 -2.1875 C 8.832031 -1.882812 8.695312 -1.523438 8.46875 -1.109375 C 8.082031 -0.367188 7.007812 0 5.25 0 C 3.539062 0 2.492188 -0.367188 2.109375 -1.109375 C 1.890625 -1.523438 1.757812 -1.898438 1.71875 -2.234375 C 1.675781 -2.566406 1.65625 -3.046875 1.65625 -3.671875 L 1.65625 -26.75 C 1.65625 -27.800781 1.785156 -28.566406 2.046875 -29.046875 C 2.304688 -29.523438 2.695312 -29.847656 3.21875 -30.015625 C 3.75 -30.179688 4.425781 -30.265625 5.25 -30.265625 C 6.070312 -30.265625 6.722656 -30.1875 7.203125 -30.03125 C 7.691406 -29.882812 8.035156 -29.710938 8.234375 -29.515625 C 8.335938 -29.429688 8.648438 -29.070312 9.171875 -28.4375 C 14.992188 -20.53125 18.882812 -15.3125 20.84375 -12.78125 L 20.84375 -26.75 C 20.84375 -27.800781 20.972656 -28.566406 21.234375 -29.046875 Z M 21.234375 -29.046875 "/></g></g></g><g fill="#f59a3d" fill-opacity="1"><g transform="translate(187.621966, 359.803764)"><g><path d="M 3.640625 -30.34375 L 26.625 -30.34375 C 27.507812 -30.34375 28.15625 -30.238281 28.5625 -30.03125 C 28.976562 -29.820312 29.253906 -29.5 29.390625 -29.0625 C 29.535156 -28.625 29.609375 -28.046875 29.609375 -27.328125 C 29.609375 -26.609375 29.535156 -26.035156 29.390625 -25.609375 C 29.253906 -25.179688 29.019531 -24.882812 28.6875 -24.71875 C 28.195312 -24.46875 27.492188 -24.34375 26.578125 -24.34375 L 18.6875 -24.34375 L 18.6875 -3.5625 C 18.6875 -2.925781 18.664062 -2.453125 18.625 -2.140625 C 18.582031 -1.835938 18.457031 -1.488281 18.25 -1.09375 C 18.039062 -0.695312 17.675781 -0.414062 17.15625 -0.25 C 16.632812 -0.0820312 15.945312 0 15.09375 0 C 14.238281 0 13.554688 -0.0820312 13.046875 -0.25 C 12.535156 -0.414062 12.175781 -0.695312 11.96875 -1.09375 C 11.757812 -1.488281 11.632812 -1.84375 11.59375 -2.15625 C 11.550781 -2.476562 11.53125 -2.957031 11.53125 -3.59375 L 11.53125 -24.34375 L 3.59375 -24.34375 C 2.71875 -24.34375 2.070312 -24.445312 1.65625 -24.65625 C 1.238281 -24.863281 0.960938 -25.1875 0.828125 -25.625 C 0.691406 -26.070312 0.625 -26.648438 0.625 -27.359375 C 0.625 -28.078125 0.691406 -28.648438 0.828125 -29.078125 C 0.960938 -29.503906 1.195312 -29.800781 1.53125 -29.96875 C 2.03125 -30.21875 2.734375 -30.34375 3.640625 -30.34375 Z M 3.640625 -30.34375 "/></g></g></g><g fill="#f59a3d" fill-opacity="1"><g transform="translate(221.966584, 359.803764)"><g><path d="M 15.875 -30.671875 C 19.957031 -30.671875 23.5 -29.195312 26.5 -26.25 C 29.5 -23.300781 31 -19.640625 31 -15.265625 C 31 -10.898438 29.566406 -7.179688 26.703125 -4.109375 C 23.835938 -1.035156 20.3125 0.5 16.125 0.5 C 11.9375 0.5 8.375 -1.015625 5.4375 -4.046875 C 2.5 -7.078125 1.03125 -10.691406 1.03125 -14.890625 C 1.03125 -17.171875 1.441406 -19.3125 2.265625 -21.3125 C 3.097656 -23.3125 4.203125 -24.984375 5.578125 -26.328125 C 6.960938 -27.679688 8.546875 -28.742188 10.328125 -29.515625 C 12.117188 -30.285156 13.96875 -30.671875 15.875 -30.671875 Z M 8.34375 -15.078125 C 8.34375 -12.628906 9.132812 -10.640625 10.71875 -9.109375 C 12.3125 -7.585938 14.085938 -6.828125 16.046875 -6.828125 C 18.003906 -6.828125 19.765625 -7.566406 21.328125 -9.046875 C 22.898438 -10.535156 23.6875 -12.535156 23.6875 -15.046875 C 23.6875 -17.554688 22.894531 -19.566406 21.3125 -21.078125 C 19.726562 -22.597656 17.957031 -23.359375 16 -23.359375 C 14.039062 -23.359375 12.273438 -22.59375 10.703125 -21.0625 C 9.128906 -19.53125 8.34375 -17.535156 8.34375 -15.078125 Z M 8.34375 -15.078125 "/></g></g></g><g fill="#f59a3d" fill-opacity="1"><g transform="translate(258.129501, 359.803764)"><g><path d="M 2.109375 -4.265625 C 1.390625 -5.140625 1.03125 -5.925781 1.03125 -6.625 C 1.03125 -7.332031 1.625 -8.265625 2.8125 -9.421875 C 3.5 -10.085938 4.226562 -10.421875 5 -10.421875 C 5.769531 -10.421875 6.847656 -9.726562 8.234375 -8.34375 C 8.617188 -7.882812 9.164062 -7.4375 9.875 -7 C 10.59375 -6.570312 11.253906 -6.359375 11.859375 -6.359375 C 14.421875 -6.359375 15.703125 -7.410156 15.703125 -9.515625 C 15.703125 -10.140625 15.351562 -10.664062 14.65625 -11.09375 C 13.957031 -11.519531 13.082031 -11.832031 12.03125 -12.03125 C 10.976562 -12.226562 9.847656 -12.539062 8.640625 -12.96875 C 7.429688 -13.394531 6.300781 -13.894531 5.25 -14.46875 C 4.195312 -15.050781 3.320312 -15.96875 2.625 -17.21875 C 1.925781 -18.46875 1.578125 -19.976562 1.578125 -21.75 C 1.578125 -24.175781 2.476562 -26.289062 4.28125 -28.09375 C 6.082031 -29.894531 8.539062 -30.796875 11.65625 -30.796875 C 13.3125 -30.796875 14.820312 -30.582031 16.1875 -30.15625 C 17.550781 -29.726562 18.492188 -29.296875 19.015625 -28.859375 L 20.046875 -28.078125 C 20.898438 -27.273438 21.328125 -26.597656 21.328125 -26.046875 C 21.328125 -25.492188 21 -24.734375 20.34375 -23.765625 C 19.40625 -22.390625 18.441406 -21.703125 17.453125 -21.703125 C 16.867188 -21.703125 16.148438 -21.976562 15.296875 -22.53125 C 15.210938 -22.582031 15.050781 -22.71875 14.8125 -22.9375 C 14.582031 -23.164062 14.375 -23.347656 14.1875 -23.484375 C 13.601562 -23.835938 12.863281 -24.015625 11.96875 -24.015625 C 11.070312 -24.015625 10.328125 -23.800781 9.734375 -23.375 C 9.140625 -22.945312 8.84375 -22.351562 8.84375 -21.59375 C 8.84375 -20.84375 9.191406 -20.234375 9.890625 -19.765625 C 10.597656 -19.296875 11.472656 -18.976562 12.515625 -18.8125 C 13.566406 -18.644531 14.710938 -18.390625 15.953125 -18.046875 C 17.191406 -17.703125 18.335938 -17.28125 19.390625 -16.78125 C 20.441406 -16.289062 21.316406 -15.429688 22.015625 -14.203125 C 22.710938 -12.972656 23.0625 -11.460938 23.0625 -9.671875 C 23.0625 -7.878906 22.703125 -6.300781 21.984375 -4.9375 C 21.273438 -3.570312 20.34375 -2.519531 19.1875 -1.78125 C 16.945312 -0.320312 14.5625 0.40625 12.03125 0.40625 C 10.738281 0.40625 9.507812 0.25 8.34375 -0.0625 C 7.1875 -0.375 6.253906 -0.765625 5.546875 -1.234375 C 4.078125 -2.117188 3.054688 -2.972656 2.484375 -3.796875 Z M 2.109375 -4.265625 "/></g></g></g><g fill="#f59a3d" fill-opacity="1"><g transform="translate(286.34639, 359.803764)"><g/></g></g></svg>